<?xml version="1.0" standalone="no"?>
<!DOCTYPE svg PUBLIC "-//W3C//DTD SVG 20010904//EN"
 "http://www.w3.org/TR/2001/REC-SVG-20010904/DTD/svg10.dtd">
<svg version="1.0" xmlns="http://www.w3.org/2000/svg"
 width="256.000000pt" height="256.000000pt" viewBox="0 0 256.000000 256.000000"
 preserveAspectRatio="xMidYMid meet">

<g transform="translate(0.000000,256.000000) scale(0.100000,-0.100000)"
fill="#000000" stroke="none">
<path d="M1215 2343 c-73 -7 -359 -53 -398 -64 -29 -8 -42 -18 -52 -42 -18
-42 -7 -67 63 -141 71 -77 129 -163 160 -240 20 -49 23 -72 20 -140 -5 -132
-25 -163 -273 -417 -288 -295 -374 -412 -437 -595 -35 -100 -47 -223 -28 -289
15 -54 75 -125 133 -160 77 -44 123 -46 952 -43 768 3 781 3 825 24 90 41 126
116 117 239 -15 196 -104 360 -399 738 -153 195 -243 324 -265 375 -60 144
-23 293 109 438 44 49 58 72 58 95 0 34 -15 67 -39 87 -39 32 -166 86 -205 86
-38 1 -43 -2 -71 -46 -16 -26 -33 -47 -36 -47 -3 -1 -18 26 -34 59 -16 34 -34
65 -40 70 -13 10 -108 19 -160 13z m165 -190 c30 -59 63 -111 72 -117 22 -13
58 18 58 51 0 39 40 123 59 123 19 0 107 -41 135 -62 18 -14 16 -18 -41 -86
-134 -160 -173 -325 -113 -485 28 -74 102 -182 284 -416 255 -325 325 -442
367 -610 28 -111 22 -173 -21 -216 -29 -28 -36 -30 -120 -34 l-90 -3 6 53 c7
63 -9 222 -32 318 -9 36 -34 104 -56 151 -40 88 -200 372 -226 403 -21 24 -51
21 -63 -7 -12 -26 -18 -15 113 -238 126 -214 157 -302 178 -493 11 -103 3
-160 -22 -177 -7 -4 -67 -8 -134 -8 l-121 0 10 63 c19 123 -16 392 -93 722
-44 190 -63 231 -98 209 -26 -17 -21 -68 27 -269 23 -99 51 -238 62 -310 18
-125 25 -345 13 -392 l-6 -23 -249 0 -248 0 -3 28 c-2 22 -8 28 -36 30 -29 3
-33 0 -38 -27 l-6 -31 -129 0 -129 0 -16 40 c-14 33 -21 40 -44 40 -32 0 -46
-25 -35 -60 6 -18 2 -20 -45 -20 -54 0 -130 31 -162 67 -26 29 -48 88 -48 130
1 122 72 298 180 443 35 47 159 182 276 301 184 189 217 226 248 290 99 200
59 370 -142 607 -30 35 -52 65 -50 66 4 4 160 26 179 26 25 0 97 -77 126 -134
14 -28 28 -75 31 -108 5 -65 20 -83 58 -74 26 7 27 8 22 79 -6 82 -29 141 -81
209 -23 30 -32 48 -24 52 7 2 46 5 87 5 l75 1 55 -107z"/>
<path d="M1370 1885 c-9 -10 -13 -53 -14 -133 -1 -138 10 -226 30 -247 19 -18
26 -19 46 -2 14 10 15 35 9 202 l-6 190 -26 3 c-14 2 -31 -4 -39 -13z"/>
<path d="M1187 1768 c-9 -14 -15 -56 -16 -108 -2 -95 -12 -146 -43 -236 -25
-73 -20 -97 19 -92 53 6 96 136 109 328 6 83 4 98 -10 113 -24 23 -43 21 -59
-5z"/>
<path d="M814 1108 c-100 -102 -161 -197 -202 -310 -20 -58 -26 -97 -30 -194
-5 -128 3 -164 37 -164 32 0 39 22 43 145 8 197 69 328 224 481 73 72 86 98
62 122 -23 23 -43 11 -134 -80z"/>
<path d="M1257 1128 c-16 -12 -17 -42 -15 -342 3 -301 5 -330 21 -340 12 -8
22 -8 35 0 15 10 17 39 20 340 2 300 1 330 -15 342 -9 6 -20 12 -23 12 -3 0
-14 -6 -23 -12z"/>
<path d="M1033 1098 c-15 -18 -88 -256 -107 -351 -22 -103 -22 -260 0 -281 8
-9 21 -16 28 -16 28 0 36 26 36 114 0 106 14 180 71 370 43 146 44 168 2 174
-11 2 -25 -3 -30 -10z"/>
</g>
</svg>
